<svg xmlns="http://www.w3.org/2000/svg" width="15.799" height="15.513" viewBox="0 0 15.799 15.513"><path id="Path_43" data-name="Path 43" d="M1400.086,526.463h-2.338v-3.6c0-.858-.018-1.963-1.22-1.963-1.219,0-1.406.934-1.406,1.9v3.663h-2.34v-7.4h2.247v1.009h.032a2.475,2.475,0,0,1,2.218-1.2c2.37,0,2.809,1.533,2.809,3.526v4.064Zm-9.946-8.415a1.345,1.345,0,0,1-1.359-1.331v0a1.359,1.359,0,1,1,1.358,1.335Zm1.172,8.415h-2.346v-7.4h2.347v7.4Zm9.946-13.22h-13.466a1.141,1.141,0,0,0-1.166,1.118v13.277a1.142,1.142,0,0,0,1.166,1.118h13.463a1.146,1.146,0,0,0,1.17-1.118V514.361a1.146,1.146,0,0,0-1.17-1.118h0Z" transform="translate(-1386.626 -513.243)" fill="#0a66c2"></path></svg>