<svg xmlns="http://www.w3.org/2000/svg" width="20.421" height="16.302" viewBox="0 0 20.421 16.302"><path id="Path_39" data-name="Path 39" d="M1304.747,515.2a8.524,8.524,0,0,1-2.407.647,4.138,4.138,0,0,0,1.843-2.276,8.441,8.441,0,0,1-2.66,1,4.246,4.246,0,0,0-5.922-.2,4.066,4.066,0,0,0-1.217,3.948,11.972,11.972,0,0,1-8.635-4.3,4.048,4.048,0,0,0-.567,2.068,4.093,4.093,0,0,0,1.864,3.424,4.232,4.232,0,0,1-1.9-.514v.051a4.137,4.137,0,0,0,3.361,4.034,4.307,4.307,0,0,1-1.893.071,4.183,4.183,0,0,0,3.914,2.857,8.517,8.517,0,0,1-6.2,1.7,12.016,12.016,0,0,0,6.421,1.849,11.727,11.727,0,0,0,11.922-11.7c0-.177-.005-.356-.013-.531a8.437,8.437,0,0,0,2.091-2.13Z" transform="translate(-1284.327 -513.269)" fill="#1da1f2"></path></svg>