<svg xmlns="http://www.w3.org/2000/svg" xmlns:xlink="http://www.w3.org/1999/xlink" id="Group_967" data-name="Group 967" width="85" height="89.182" viewBox="0 0 85 89.182"><defs><clipPath id="clip-path"><rect id="Rectangle_900" data-name="Rectangle 900" width="85" height="89.183" fill="#2d2d2d"></rect></clipPath></defs><g id="Group_966" data-name="Group 966" clip-path="url(#clip-path)"><path id="Path_1706" data-name="Path 1706" d="M83.1,54.672l-.023-.02c-1.493-1.4-3.017-2.8-4.532-4.16a2.837,2.837,0,0,1-1-2.343c.028-1.263.025-2.556.023-3.807,0-1.125,0-2.281.015-3.417a3.1,3.1,0,0,1,.83-2.052l.022-.022c.8-.78,1.63-1.538,2.43-2.271l.324-.3c.622-.569,1.283-1.175,1.923-1.776l.02-.017A5.315,5.315,0,0,0,84.175,27.6l-.013-.021c-2.026-3.542-4.092-7.112-6.141-10.613l-.012-.021a5.208,5.208,0,0,0-6.338-2.488l-.024.008c-1.815.548-3.728,1.153-6.024,1.906a2.877,2.877,0,0,1-2.61-.353c-1.924-1.191-3.947-2.367-6.008-3.49a2.929,2.929,0,0,1-1.6-2.073L55.4,10.4c-.447-2.076-.907-4.213-1.415-6.276l0-.019A5.168,5.168,0,0,0,48.8.014h-.018C44.618,0,40.4,0,36.234.014h-.018A5.161,5.161,0,0,0,31.031,4.1l0,.018c-.251,1.028-.483,2.059-.707,3.056C30.068,8.3,29.8,9.5,29.505,10.669l-.011.039a3.066,3.066,0,0,1-1.377,1.715c-.867.519-1.762,1.036-2.627,1.536l-.112.064c-1.057.609-2.255,1.3-3.394,2a2.849,2.849,0,0,1-2.6.339c-1.98-.655-4-1.292-6.014-1.893l-.027-.009A5.2,5.2,0,0,0,7,16.935l-.011.021C4.94,20.465,2.874,24.036.847,27.572l-.013.022A5.3,5.3,0,0,0,1.86,34.48l.02.018c.594.559,1.206,1.117,1.8,1.657l.087.079c.87.8,1.855,1.7,2.795,2.6l.023.023a3.1,3.1,0,0,1,.835,2.046c.042,2.514.042,5,0,7.389a3.081,3.081,0,0,1-.849,2.047l-.018.018c-.939.906-1.911,1.8-2.85,2.656l-.013.012c-.588.538-1.175,1.076-1.757,1.615l-.021.019A5.364,5.364,0,0,0,.873,61.676l.018.028c1.975,3.431,3.982,6.9,5.968,10.31l.022.041a5.316,5.316,0,0,0,6.7,2.621l.041-.015c1.987-.623,3.927-1.234,5.867-1.875a2.726,2.726,0,0,1,2.435.342c1.086.659,2.188,1.3,3.253,1.915l.018.01c.966.559,1.964,1.138,2.946,1.729A3.072,3.072,0,0,1,29.5,78.5l.01.036c.47,1.881.889,3.8,1.294,5.652l.116.54a5.067,5.067,0,0,0,2.118,3.4,9.5,9.5,0,0,0,1.674.769l.123.047c.193.075.391.153.588.233H49.556a2.108,2.108,0,0,1,.32-.105l.035-.007a5.121,5.121,0,0,0,4.1-4.111l.007-.033c.478-2.014.937-4.057,1.364-6.076a3.086,3.086,0,0,1,1.69-2.217c1.169-.633,2.345-1.324,3.483-1.993l.122-.072c.829-.489,1.688-.994,2.553-1.484a2.934,2.934,0,0,1,2.1-.309l.036.009c1.306.383,2.619.8,3.889,1.208L69.28,74l2.137.678a5.319,5.319,0,0,0,6.67-2.53l-.008,0,.069-.118,0,0,.035-.071.005,0c1.978-3.4,3.97-6.844,5.922-10.235l.018-.029A5.369,5.369,0,0,0,83.1,54.672m-1.327,4.783a4.721,4.721,0,0,1-.307.687L79.34,63.824c-1.292,2.232-2.593,4.488-3.867,6.7a2.443,2.443,0,0,1-3.055,1.224l-.077-.018c-1-.326-2.032-.647-3.027-.957l-.358-.112c-1.458-.453-2.884-.9-4.3-1.373l-.035-.012a1.931,1.931,0,0,0-2.013.358l-.023.02a30.053,30.053,0,0,1-8.486,4.9l-.029.01a1.678,1.678,0,0,0-1.146,1.318l-.006.029c-.239,1.083-.495,2.234-.758,3.38l-.038.165c-.32,1.4-.651,2.85-.949,4.282A2.685,2.685,0,0,1,48.5,86.134c-.082,0-.167,0-.251-.012-3.811-.048-7.684-.048-11.5,0h-.037a2.685,2.685,0,0,1-2.857-2.39c-.24-1.158-.5-2.317-.75-3.406-.336-1.477-.613-2.708-.874-4l-.007-.042a2.266,2.266,0,0,0-1.576-1.867l-.031-.01a26.665,26.665,0,0,1-7.883-4.553l-.028-.025a2.429,2.429,0,0,0-2.626-.471l-.038.015c-1.359.477-2.746.909-4.088,1.327l-.136.043c-1.081.335-2.054.638-3.019.957a2.547,2.547,0,0,1-3.307-1.258c-1.921-3.381-3.9-6.806-5.877-10.17a2.57,2.57,0,0,1,.551-3.511c.857-.771,1.728-1.576,2.57-2.354l.382-.353c1.028-.949,1.956-1.8,2.9-2.659l.033-.028a1.793,1.793,0,0,0,.667-1.727l0-.018a35.154,35.154,0,0,1,0-10.121,1.755,1.755,0,0,0-.636-1.668l-.03-.025c-.858-.774-1.723-1.568-2.607-2.382-.981-.9-2.089-1.926-3.2-2.916A2.689,2.689,0,0,1,3.655,28.8l.017-.024c1.938-3.281,3.886-6.65,5.781-10A2.572,2.572,0,0,1,12.829,17.5l.008,0c1.151.38,2.328.747,3.466,1.1l.151.047c1.284.4,2.611.816,3.941,1.257l.028.01a1.944,1.944,0,0,0,2.012-.386l.028-.024a29.629,29.629,0,0,1,8.322-4.827l.038-.013a1.875,1.875,0,0,0,1.309-1.486l0-.024c.264-1.249.549-2.51.825-3.729l.1-.452c.265-1.169.538-2.378.792-3.568a2.652,2.652,0,0,1,2.869-2.332c3.761.04,7.657.04,11.567,0A2.623,2.623,0,0,1,51.157,5.36l0,.041c.282,1.324.586,2.656.879,3.944l.022.1c.275,1.2.567,2.492.846,3.784l.006.031A1.723,1.723,0,0,0,54.1,14.633l.033.012a30.139,30.139,0,0,1,8.479,4.911l.021.018a1.86,1.86,0,0,0,1.94.352l.032-.012c1.281-.424,2.568-.828,3.885-1.238l.344-.108c1.095-.343,2.227-.7,3.331-1.062a2.573,2.573,0,0,1,3.382,1.258l.011.024c1.661,2.936,3.46,6.051,5.827,10.09a2.621,2.621,0,0,1-.566,3.582c-.713.639-1.433,1.3-2.129,1.942l-.563.517c-1.024.948-2.027,1.874-3.041,2.777l-.04.033a1.919,1.919,0,0,0-.749,1.856,34.392,34.392,0,0,1,0,10.04,1.8,1.8,0,0,0,.665,1.737l.033.027c1.695,1.517,3.374,3.077,5,4.586l.909.845a4.907,4.907,0,0,1,.653.794l.12.167.048.067.46.594Z" transform="translate(0 -0.001)" fill="#2d2d2d"></path><path id="Path_1707" data-name="Path 1707" d="M285.2,226.061l-.011.064-3.158,13.681c-.821,3.546-1.653,7.161-2.471,10.745a1.688,1.688,0,0,0,.293,1.456,1.419,1.419,0,0,0,1.161.521h.025a1.545,1.545,0,0,0,1.527-1.321l.01-.052c1.86-8.047,3.744-16.233,5.6-24.339l.006-.025a2.092,2.092,0,0,0-.2-1.586,1.3,1.3,0,0,0-.836-.56h0a1.869,1.869,0,0,0-.379-.043,1.653,1.653,0,0,0-1.564,1.459" transform="translate(-241.393 -193.977)" fill="#2d2d2d"></path><path id="Path_1708" data-name="Path 1708" d="M151.65,271.568v0a1.7,1.7,0,0,0-.684-1.519l-.043-.035c-1.589-1.41-3.124-2.793-4.749-4.257l-3.3-2.971,4.07-3.681c1.391-1.247,2.794-2.512,4.17-3.76l.024-.02a1.427,1.427,0,0,0,.46-1.549l-.042-.13.012,0a1.4,1.4,0,0,0-1.116-.97l-.037-.007a1.492,1.492,0,0,0-.305-.036,1.882,1.882,0,0,0-1.248.592l-.035.034c-1.791,1.622-3.607,3.26-5.4,4.872l-3.69,3.321a1.9,1.9,0,0,0-.723,1.324,1.951,1.951,0,0,0,.74,1.358l.033.028q2.633,2.375,5.264,4.74l.975.878c1.115,1.006,2.121,1.911,3.155,2.8l.017.015a1.338,1.338,0,0,0,1.5.223l.047-.021a1.416,1.416,0,0,0,.9-1.222" transform="translate(-120.057 -218.18)" fill="#2d2d2d"></path><path id="Path_1709" data-name="Path 1709" d="M401.69,405.787h0l0,.009,0-.124Z" transform="translate(-346.918 -350.357)" fill="#2d2d2d"></path><path id="Path_1710" data-name="Path 1710" d="M400.945,406.35l-.252-.593v-.041l.008-.115.272.015Z" transform="translate(-346.056 -350.295)" fill="#2d2d2d"></path><path id="Path_1711" data-name="Path 1711" d="M392.009,272.337a1.519,1.519,0,0,0,1.037.528l.108.008a1.646,1.646,0,0,0,1.063-.442l0,0c3.48-3.079,6.6-5.882,9.523-8.567l.017-.015a1.514,1.514,0,0,0,.533-1.086,1.739,1.739,0,0,0-.572-1.233l-.018-.017c-.25-.245-.5-.472-.775-.713l-1.172-1.049q-3.735-3.361-7.477-6.72l-.023-.021a1.572,1.572,0,0,0-1.055-.458,1.664,1.664,0,0,0-.607.13l-.029.012a1.389,1.389,0,0,0-.922,1.244v.02a1.64,1.64,0,0,0,.656,1.452l.041.033c1.656,1.476,3.29,2.947,5.1,4.579l2.934,2.64-1.346,1.288c-.17.165-.331.322-.507.474l-2.24,2.014q-2.01,1.8-4.012,3.608l-.036.03a1.561,1.561,0,0,0-.286,2.188c.019.025.04.05.061.074" transform="translate(-338.225 -218.116)" fill="#2d2d2d"></path></g></svg>