<svg xmlns="http://www.w3.org/2000/svg" xmlns:xlink="http://www.w3.org/1999/xlink" id="Group_965" data-name="Group 965" width="85" height="85" viewBox="0 0 85 85"><defs><clipPath id="clip-path"><rect id="Rectangle_899" data-name="Rectangle 899" width="85" height="85" fill="#2d2d2d"></rect></clipPath></defs><g id="Group_964" data-name="Group 964" clip-path="url(#clip-path)"><path id="Path_1699" data-name="Path 1699" d="M84.168,85h0A.832.832,0,0,0,85,84.17V.832A.832.832,0,0,0,84.17,0H.831A.831.831,0,0,0,0,.83V84.168A.831.831,0,0,0,.83,85Zm-1.977-4.637a1.861,1.861,0,0,1-1.86,1.863h-.516v-.011H4.657A1.864,1.864,0,0,1,2.8,80.351v-55.2A1.868,1.868,0,0,1,4.656,23.3H80.33a1.861,1.861,0,0,1,1.861,1.86ZM2.787,4.652A1.868,1.868,0,0,1,4.134,2.87V2.8l.515-.011H80.321a1.865,1.865,0,0,1,1.863,1.863V18.556a1.865,1.865,0,0,1-1.863,1.861H4.649a1.865,1.865,0,0,1-1.863-1.861Z" transform="translate(0)" fill="#2d2d2d"></path><path id="Path_1700" data-name="Path 1700" d="M143.367,253.372h0a.832.832,0,0,0,.831-.83V239.611a.833.833,0,0,0-.832-.832H80.617a.833.833,0,0,0-.832.832v12.93a.832.832,0,0,0,.831.831ZM82.534,242.32a.8.8,0,0,1,.793-.8h57.329a.8.8,0,0,1,.8.8v7.511a.8.8,0,0,1-.8.8v0H83.33a.8.8,0,0,1-.8-.8Z" transform="translate(-69.506 -208.017)" fill="#2d2d2d"></path><path id="Path_1701" data-name="Path 1701" d="M117.683,432.807h0a.83.83,0,0,0,.831-.83V411.861a.833.833,0,0,0-.832-.832H80.711a.833.833,0,0,0-.832.832v20.114a.831.831,0,0,0,.83.832ZM82.614,414.58a.8.8,0,0,1,.8-.8H115a.8.8,0,0,1,.792.791v14.659a.8.8,0,0,1-.8.8H83.411a.8.8,0,0,1-.8-.793Z" transform="translate(-69.588 -358.076)" fill="#2d2d2d"></path><path id="Path_1702" data-name="Path 1702" d="M456.3,432.674a.833.833,0,0,0,.832-.832V411.726a.834.834,0,0,0-.832-.832H439.821a.833.833,0,0,0-.831.832v20.116a.831.831,0,0,0,.83.832Zm-14.568-18.236a.8.8,0,0,1,.8-.8h11.063a.8.8,0,0,1,.8.8v14.7a.8.8,0,0,1-.8.8H442.53a.8.8,0,0,1-.8-.8Z" transform="translate(-382.435 -357.959)" fill="#2d2d2d"></path><path id="Path_1703" data-name="Path 1703" d="M74.627,75.605v2.321a.833.833,0,0,0,.832.832l2.321,0a.833.833,0,0,0,.832-.832V75.6a.833.833,0,0,0-.832-.832H75.459a.832.832,0,0,0-.832.834" transform="translate(-65.013 -65.138)" fill="#2d2d2d"></path><path id="Path_1704" data-name="Path 1704" d="M157.288,78.561a.833.833,0,0,0,.831-.832V75.392a.832.832,0,0,0-.831-.832h-2.323a.833.833,0,0,0-.832.832v2.337a.834.834,0,0,0,.833.832Z" transform="translate(-134.276 -64.955)" fill="#2d2d2d"></path><path id="Path_1705" data-name="Path 1705" d="M236.89,74.637h-2.333a.833.833,0,0,0-.832.832v2.317a.833.833,0,0,0,.832.832h2.333a.833.833,0,0,0,.832-.832V75.469a.833.833,0,0,0-.832-.832" transform="translate(-203.614 -65.022)" fill="#2d2d2d"></path></g></svg>