<svg xmlns="http://www.w3.org/2000/svg" width="214.813" height="18.579" viewBox="0 0 214.813 18.579">
  <g id="Group_187" data-name="Group 187" transform="translate(0 0)">
    <path id="Path_14" data-name="Path 14" d="M28.3,17.152H45.243c-.16.6-.306,1.162-.47,1.724-.018.065-.129.118-.207.146a.7.7,0,0,1-.224.005H25.424c.227-.847.444-1.65.659-2.453Q27.76,10.3,29.433,4.035a.348.348,0,0,1,.407-.316q9.317.011,18.633.005h.344c-.105.423-.2.81-.3,1.2-.179.69-.181.689-.882.689H31.4L30.11,10.416H46.018c-.167.618-.317,1.193-.482,1.762-.017.058-.115.111-.184.13a.964.964,0,0,1-.257.006H29.611L28.3,17.152" transform="translate(-3.123 -0.457)" fill="#2d2d2d"/>
    <path id="Path_15" data-name="Path 15" d="M18.491,15.88c.233-.855.453-1.644.664-2.435Q20.418,8.724,21.673,4a.313.313,0,0,1,.368-.283c.686.018,1.372.006,2.116.006-1.371,5.122-2.731,10.2-4.1,15.3-.721,0-1.429.01-2.136-.009a.612.612,0,0,1-.338-.205q-4.673-4.65-9.337-9.306c-.858-.857-1.7-1.725-2.613-2.646L2.379,19.017H0c.029-.146.046-.278.08-.4Q2.038,11.309,3.992,4c.06-.225.145-.29.366-.285.569.014,1.139-.011,1.708.015a.816.816,0,0,1,.494.214q5.118,5.091,10.22,10.2c.56.56,1.115,1.127,1.711,1.731" transform="translate(0 -0.457)" fill="#2d2d2d"/>
    <path id="Path_16" data-name="Path 16" d="M62.7,11.357l6.053,7.651c-.127.009-.206.019-.285.019-.9,0-1.805,0-2.708,0a.475.475,0,0,1-.43-.2c-1.549-1.976-3.109-3.945-4.681-5.936L58.36,14.621q-2.81,2.126-5.623,4.25a.7.7,0,0,1-.371.151c-1,.012-2,.007-3.031-.051l10.111-7.613c-2-2.531-3.983-5.044-6-7.6a2.177,2.177,0,0,1,.267-.035c.913,0,1.826-.01,2.739.008a.579.579,0,0,1,.39.2q2.213,2.785,4.407,5.587c.072.091.147.179.227.275,1.528-1.151,3.036-2.286,4.543-3.423,1.088-.82,2.17-1.647,3.265-2.46a.906.906,0,0,1,.489-.178c.9-.018,1.805-.008,2.708-.007.071,0,.142.01.288.021L62.7,11.357" transform="translate(-6.061 -0.458)" fill="#2d2d2d"/>
    <path id="Path_17" data-name="Path 17" d="M119.245,11.1a2.452,2.452,0,0,1,.768,1.7,6.482,6.482,0,0,1-1.868,4.838,4.914,4.914,0,0,1-3.459,1.391q-8.026-.009-16.052,0h-.34c.422-1.593.833-3.15,1.247-4.707.9-3.385,1.8-6.769,2.693-10.157a.491.491,0,0,1,.575-.448q7.639.021,15.278.007a3.268,3.268,0,0,1,2.3.729A2.577,2.577,0,0,1,121.2,6.7a6.511,6.511,0,0,1-1.779,4.2c-.053.054-.1.114-.175.206m-18.074,6.053h.223c4.513,0,9.026.006,13.539-.006a2.1,2.1,0,0,0,2.081-1.352,10.232,10.232,0,0,0,.559-2.063,1.1,1.1,0,0,0-.988-1.392,2.5,2.5,0,0,0-.514-.025h-8.864c-1.482,0-2.966,0-4.448,0-.2,0-.3.034-.352.259-.231.911-.5,1.813-.744,2.72-.165.607-.321,1.216-.492,1.863m1.812-6.733h.414q6.108,0,12.213,0c.236,0,.473-.011.708-.032a2.121,2.121,0,0,0,1.911-1.354,10.591,10.591,0,0,0,.557-1.9,1.2,1.2,0,0,0-1.281-1.517q-6.493-.011-12.987-.008c-.2,0-.264.059-.314.256-.232.91-.5,1.813-.741,2.72-.161.595-.312,1.193-.481,1.838" transform="translate(-12.076 -0.457)" fill="#2d2d2d"/>
    <path id="Path_18" data-name="Path 18" d="M143.926,12.836a3.506,3.506,0,0,1,.261,3.105c-.242.952-.5,1.9-.767,2.846-.027.095-.147.231-.227.232-.729.018-1.459.011-2.235.011.15-.576.289-1.12.433-1.662.172-.651.353-1.3.52-1.951a1.288,1.288,0,0,0-1.374-1.8c-.677-.011-1.354,0-2.031,0-3.546,0-7.093.005-10.639-.009a.42.42,0,0,0-.495.378c-.418,1.6-.86,3.2-1.279,4.8-.052.2-.127.257-.323.254-.705-.011-1.411,0-2.146,0,.3-1.114.577-2.187.864-3.259q1.571-5.867,3.138-11.734a.351.351,0,0,1,.408-.318q7.736.013,15.475.005a3.233,3.233,0,0,1,2.024.6,2.515,2.515,0,0,1,1,1.934,11.307,11.307,0,0,1-.692,3.473,5.105,5.105,0,0,1-1.041,2.01c-.284.35-.562.706-.87,1.094m-15.942-1.111c.091.007.133.013.175.013q6.461,0,12.921,0a2.231,2.231,0,0,0,2.206-1.562,30.087,30.087,0,0,0,.824-3.028,1.188,1.188,0,0,0-1.265-1.525c-4.329-.008-8.657,0-12.985-.009-.186,0-.254.059-.3.239-.289,1.1-.6,2.2-.894,3.306-.227.846-.449,1.691-.682,2.569" transform="translate(-15.188 -0.458)" fill="#2d2d2d"/>
    <path id="Path_19" data-name="Path 19" d="M88.5,5.613l-.9,3.356q-1.322,4.921-2.652,9.841c-.023.086-.132.21-.2.211-.739.016-1.479.01-2.247.01,1.2-4.478,2.394-8.922,3.6-13.407h-9c.157-.606.3-1.175.458-1.739.018-.065.122-.121.2-.15a.677.677,0,0,1,.224-.006H98c-.163.615-.307,1.19-.479,1.758-.02.067-.2.122-.3.122-1.826.007-3.653.005-5.48.005H88.5" transform="translate(-9.47 -0.457)" fill="#2d2d2d"/>
    <path id="Path_20" data-name="Path 20" d="M203.022,8.448c.085-.386.166-.748.246-1.111a1.868,1.868,0,0,0,.04-.22c.124-1.188-.561-1.508-1.416-1.506q-6.415.009-12.831,0a2.287,2.287,0,0,0-2.387,1.76c-.408,1.405-.777,2.822-1.16,4.235-.332,1.225-.666,2.452-.985,3.681a2.2,2.2,0,0,0-.089.759,1.152,1.152,0,0,0,1.232,1.1c.149.01.3.006.451.006H198.5a2.4,2.4,0,0,0,2.706-2.026c.2-.687.368-1.38.561-2.105h-8.013c.166-.612.312-1.19.488-1.759.023-.075.2-.142.3-.144.967-.011,1.935-.005,2.9-.005h7.2c-.11.427-.2.807-.305,1.186-.28,1.053-.5,2.126-.855,3.152a5.2,5.2,0,0,1-4.262,3.564,1.59,1.59,0,0,1-.289.01q-7.109,0-14.217,0a2.672,2.672,0,0,1-2.6-1.927,3.749,3.749,0,0,1,.053-2c.678-2.538,1.317-5.087,2.066-7.6a5.1,5.1,0,0,1,4.277-3.738,3.775,3.775,0,0,1,.676-.025q6.769,0,13.54,0a3.184,3.184,0,0,1,2.022.6,2.679,2.679,0,0,1,.98,2.612,8.657,8.657,0,0,1-.307,1.309.319.319,0,0,1-.23.189c-.718.015-1.438.009-2.174.009" transform="translate(-22.361 -0.458)" fill="#2d2d2d"/>
    <path id="Path_21" data-name="Path 21" d="M154.447,19.031c.19-.71.368-1.38.547-2.049q1.738-6.485,3.469-12.972c.059-.222.14-.288.365-.288,5.738.006,11.477,0,17.216.018a3.78,3.78,0,0,1,1.52.311A2.529,2.529,0,0,1,179,7.079c-.388,1.817-.913,3.6-1.391,5.4-.278,1.041-.513,2.1-.882,3.11a5.126,5.126,0,0,1-4.186,3.426,2.958,2.958,0,0,1-.515.013l-17.217,0h-.361m2.871-1.875h14.655a2.381,2.381,0,0,0,2.5-1.924q.376-1.375.742-2.753c.452-1.692.913-3.382,1.348-5.08.254-.989-.1-1.585-1-1.765a2.446,2.446,0,0,0-.482-.021H160.427c-1.036,3.845-2.068,7.678-3.109,11.543" transform="translate(-18.975 -0.458)" fill="#2d2d2d"/>
    <path id="Path_22" data-name="Path 22" d="M148.572,19.012c.195-.735.382-1.446.572-2.156q1.7-6.36,3.393-12.72c.08-.3.187-.439.533-.42.651.036,1.305.011,1.994.011-1.371,5.123-2.731,10.2-4.092,15.286Z" transform="translate(-18.253 -0.457)" fill="#2d2d2d"/>
    <path id="Path_23" data-name="Path 23" d="M227.116,19.01h-19.3c.121-.474.232-.927.354-1.378q1.655-6.176,3.313-12.351c.118-.443.251-.883.352-1.331.043-.194.136-.248.31-.23.054.005.108,0,.161,0h18.9c-.168.647-.325,1.253-.487,1.876h-16.93c-.432,1.6-.86,3.188-1.3,4.822H228.4l-.517,1.894H211.989c-.438,1.609-.871,3.2-1.312,4.828h16.948c-.176.646-.343,1.257-.51,1.869" transform="translate(-25.531 -0.457)" fill="#2d2d2d"/>
    <path id="Path_24" data-name="Path 24" d="M236.336,3.823a3.757,3.757,0,1,1,7.512,0,3.756,3.756,0,1,1-7.512,0m.685,0a3.073,3.073,0,1,0,6.142,0,3.073,3.073,0,1,0-6.142,0m3.727.361,1.141,1.636-.97.019-1.046-1.617h-.438V5.838h-.817V1.749h1.768a1.218,1.218,0,0,1,1.369,1.237,1.147,1.147,0,0,1-1.008,1.2m-1.312-1.692V3.537h.894c.342,0,.609-.152.609-.532,0-.361-.267-.513-.609-.513Z" transform="translate(-29.035 0)" fill="#2d2d2d"/>
  </g>
</svg>
